<?xml version="1.0" encoding="UTF-8" standalone="no"?>
<svg
   viewBox="0 0 480 480"
   version="1.1"
   id="svg3"
   sodipodi:docname="bq-logo-02.svg"
   width="480"
   height="480"
   inkscape:version="1.3 (0e150ed6c4, 2023-07-21)"
   inkscape:export-filename="bq-logo-02.png"
   inkscape:export-xdpi="96"
   inkscape:export-ydpi="96"
   xmlns:inkscape="http://www.inkscape.org/namespaces/inkscape"
   xmlns:sodipodi="http://sodipodi.sourceforge.net/DTD/sodipodi-0.dtd"
   xmlns="http://www.w3.org/2000/svg"
   xmlns:svg="http://www.w3.org/2000/svg">
  <sodipodi:namedview
     id="namedview3"
     pagecolor="#ffffff"
     bordercolor="#000000"
     borderopacity="0.25"
     inkscape:showpageshadow="2"
     inkscape:pageopacity="0.0"
     inkscape:pagecheckerboard="0"
     inkscape:deskcolor="#d1d1d1"
     inkscape:zoom="1.1711456"
     inkscape:cx="311.66065"
     inkscape:cy="261.70956"
     inkscape:window-width="1920"
     inkscape:window-height="991"
     inkscape:window-x="-9"
     inkscape:window-y="-9"
     inkscape:window-maximized="1"
     inkscape:current-layer="svg3" />
  <defs
     id="defs1">
    <style
       id="style1">.cls-1{fill:#f66b0e;}.cls-2,.cls-3,.cls-4{fill:#efefef;}.cls-3{opacity:0.5;}.cls-3,.cls-4{font-size:256.53px;font-family:Rubik-Medium, Rubik;font-weight:500;}</style>
  </defs>
  <g
     id="Capa_3"
     data-name="Capa 3"
     transform="translate(-80)">
    <circle
       class="cls-1"
       cx="320"
       cy="240"
       r="240"
       id="circle1" />
    <path
       class="cls-2"
       d="m 252.08,113.5 a 153,153 0 0 1 173.59,0 h 25 a 168.46,168.46 0 0 0 -222.59,0 z"
       id="path1" />
    <path
       class="cls-2"
       d="m 451.87,114.57 v 21.78 a 153,153 0 0 1 0,206.3 v 21.85 h -24.75 a 153.06,153.06 0 0 1 -176.49,0 h -24.8 a 168.49,168.49 0 1 0 226,-249.93 z"
       id="path2" />
    <text
       class="cls-3"
       transform="matrix(0.9,0,0,1,132.13,327.42)"
       id="text2">BQ</text>
    <text
       class="cls-4"
       transform="matrix(0.9,0,0,1,139.4,319.16)"
       id="text3">BQ</text>
  </g>
</svg>
